<?xml version="1.0" encoding="utf-8"?>
<!-- Svg Vector Icons : http://www.onlinewebfonts.com/icon -->
<!DOCTYPE svg PUBLIC "-//W3C//DTD SVG 1.1//EN" "http://www.w3.org/Graphics/SVG/1.1/DTD/svg11.dtd">
<svg version="1.1" xmlns="http://www.w3.org/2000/svg" xmlns:xlink="http://www.w3.org/1999/xlink" x="0px" y="0px" viewBox="0 0 256 256" enable-background="new 0 0 256 256" xml:space="preserve">
<metadata> Svg Vector Icons : http://www.onlinewebfonts.com/icon </metadata>
<g><g><path fill="#000000" d="M169.9,140.7c-9.2,0-17.4,4.1-23.1,10.5L132.4,141c1.6-4.2,2.4-8.8,2.4-13.5c0-4.7-0.9-9.2-2.3-13.3l14.4-10.1c5.7,6.4,13.8,10.5,23,10.5c17,0,30.8-13.8,30.8-30.8c0-17-13.8-30.8-30.8-30.8c-17,0-30.8,13.8-30.8,30.8c0,3,0.5,6,1.3,8.7L126,102.6c-6-7.5-14.8-12.7-24.6-14.3V70.9c13.9-3,24.4-15.3,24.4-30.1c0-17-13.8-30.8-30.8-30.8S64.3,23.8,64.3,40.8c0,14.6,10.2,26.8,23.9,30v17.6c-18.7,3.2-32.9,19.5-32.9,39.1c0,19.6,14.4,36,33.1,39.1v18.6c-13.8,3-24.2,15.3-24.2,30.1c0,17,13.8,30.8,30.8,30.8c17,0,30.8-13.8,30.8-30.8c0-14.7-10.4-27-24.2-30.1v-18.6c9.7-1.6,18.2-6.7,24.2-14.1l14.5,10.3c-0.8,2.7-1.2,5.7-1.2,8.7c0,17,13.8,30.8,30.8,30.8c17,0,30.8-13.8,30.8-30.8C200.6,154.5,186.9,140.7,169.9,140.7L169.9,140.7z M169.9,68.7c8.2,0,14.9,6.7,14.9,14.9c0,8.2-6.7,14.9-14.9,14.9c-8.2,0-15-6.7-15-14.9C154.9,75.4,161.7,68.7,169.9,68.7L169.9,68.7z M80.1,40.8c0-8.2,6.7-14.9,14.9-14.9c8.2,0,14.9,6.7,14.9,14.9c0,8.2-6.7,14.9-14.9,14.9C86.8,55.7,80.1,48.9,80.1,40.8L80.1,40.8z M109.9,215.2c0,8.2-6.7,14.9-14.9,14.9c-8.2,0-14.9-6.7-14.9-14.9c0-8.2,6.7-14.9,14.9-14.9C103.3,200.3,109.9,207,109.9,215.2L109.9,215.2z M95,148.2c-11.5,0-20.8-9.3-20.8-20.8c0-11.5,9.3-20.8,20.8-20.8c11.5,0,20.8,9.3,20.8,20.8C115.9,138.9,106.5,148.2,95,148.2L95,148.2z M169.9,186.4c-8.2,0-14.9-6.7-14.9-14.9c0-8.2,6.7-14.9,14.9-14.9c8.2,0,14.9,6.7,14.9,14.9C184.8,179.7,178.1,186.4,169.9,186.4L169.9,186.4z"/></g></g>
</svg>